<svg clip-rule="evenodd" fill-rule="evenodd" height="2048" image-rendering="optimizeQuality" shape-rendering="geometricPrecision" text-rendering="geometricPrecision" viewBox="0 0 2048 2048" width="2048" xmlns="http://www.w3.org/2000/svg"><g fill-rule="nonzero"><path d="m1346.82 382.948c-13.2543 0-24 10.7457-24 24s10.7457 24 24 24h194.114v1313.05h-1033.86v-1313.05h194.116c13.2543 0 24-10.7457 24-24s-10.7457-24-24-24h-218.116c-13.2543 0-24 10.7457-24 24v1361.05c0 13.2543 10.7457 24 24 24h1081.86c13.2543 0 24-10.7457 24-24v-1361.05c0-13.2543-10.7457-24-24-24z" fill="#212121"/><path d="m689.597 551.999h668.808l-73.0973-248.001h-522.613l-73.0973 248.001zm700.841 48h-732.382c-2.40118.0484252-4.85079-.264567-7.27678-.979135-12.7134-3.74646-19.9819-17.0929-16.2354-29.8063l.0578741.0165354 86.7532-294.333c2.33858-10.8047 11.9516-18.8988 23.4555-18.8988h557.94c10.5402-.199606 20.3386 6.61418 23.4626 17.2146l-23.0209 6.78544 22.9689-6.75001 86.7426 294.296c.989765 2.62914 1.53425 5.47914 1.53425 8.45552 0 13.2543-10.7457 24-24 24z" fill="#212121"/><path d="m1371.45 487.589c-13.2543 0-24 10.7457-24 24s10.7457 24 24 24h64.7823v1103.72h-824.468v-1103.72h64.7823c13.2543 0 24-10.7457 24-24s-10.7457-24-24-24h-88.7824c-13.2543 0-24 10.7457-24 24v1151.72c0 13.2543 10.7457 24 24 24h872.468c13.2543 0 24-10.7457 24-24v-1151.72c0-13.2543-10.7457-24-24-24h-88.7824z" fill="#212121"/><path d="m684.602 691.713h128.001c13.2543 0 24 10.7457 24 24v128.001c0 13.2543-10.7457 24-24 24h-128.001c-13.2543 0-24-10.7457-24-24v-128.001c0-13.2543 10.7457-24 24-24zm104.001 48h-80.0008v80.0008h80.0008z" fill="#66bb6a"/><path d="m883.398 819.712h480.002v48h-480.002z" fill="#66bb6a"/><path d="m684.602 999.446h128.001c13.2543 0 24 10.7457 24 24v128.001c0 13.2543-10.7457 24-24 24h-128.001c-13.2543 0-24-10.7457-24-24v-128.001c0-13.2543 10.7457-24 24-24zm104.001 48h-80.0008v80.0008h80.0008z" fill="#66bb6a"/><path d="m883.398 1127.44h480.002v48h-480.002z" fill="#66bb6a"/><path d="m684.602 1307.18h128.001c13.2543 0 24 10.7457 24 24v128.001c0 13.2543-10.7457 24-24 24h-128.001c-13.2543 0-24-10.7457-24-24v-128.001c0-13.2543 10.7457-24 24-24zm104.001 48h-80.0008v80.0008h80.0008z" fill="#66bb6a"/><path d="m883.398 1435.18h480.002v48h-480.002z" fill="#66bb6a"/></g><path d="m0 0h2048v2048h-2048z" fill="none"/></svg>