<svg viewBox="0 0 400 300" xmlns="http://www.w3.org/2000/svg"><path d="m145.54 54.41c-40.9 10.1-73.23 42-82.71 83.08-7 30.55-.86 62 46.59 73.5 102.59 24.77 213.4 16.6 226.67-32.93s-11.36-134.51-70-139.77c-33.42-2.99-83.56 6.98-120.55 16.12z" fill="#e6e6e6" opacity=".3"/><ellipse cx="200" cy="271.05" fill="#e6e6e6" opacity=".45" rx="116.55" ry="10.8"/><path d="m197.66 156.49a66.27 66.27 0 0 1 -25.88-10.74c-2.53 2.65-5.11 5.24-7.56 8-1.25 1.39-2.13 1.24-3.37 0q-6.21-6.31-12.58-12.45c-1.23-1.19-1.05-1.95.08-3.05 2.63-2.56 5.15-5.24 7.57-7.72-2.16-4.22-4.58-8.36-6.44-12.73a77.14 77.14 0 0 1 -3.41-11.11c-.36-1.41-.9-1.75-2.22-1.72-3.19.08-6.38 0-9.58.06-1.54 0-2.07-.58-2.05-2.09q.08-9 0-17.91c0-1.55.6-2.08 2.1-2 3.26.08 6.53.09 9.79 0 .61 0 1.63-.63 1.73-1.11a65.63 65.63 0 0 1 10.5-24.3c-2.67-2.63-5.28-5.3-8-7.83-1.23-1.13-1.2-1.88 0-3q6.44-6.23 12.73-12.6c1.15-1.17 2-1.15 3.06 0 2.49 2.71 5.07 5.33 7.63 8 2-1.19 3.6-2.23 5.27-3.18a60.51 60.51 0 0 1 18.81-7c1.41-.27 2-.77 1.89-2.29-.14-3.12 0-6.25-.06-9.37 0-1.52.51-2.08 2.07-2.06 6 .06 12.08.07 18.11 0 1.69 0 2.18.64 2.15 2.22-.07 3.6 0 7.21 0 11.06a65.74 65.74 0 0 1 25.84 10.74c2.6-2.72 5.19-5.32 7.66-8 1.19-1.3 2.05-1.21 3.24 0 4.14 4.2 8.31 8.37 12.57 12.46 1.29 1.24 1.16 2-.06 3.18-2.61 2.48-5.09 5.1-7.78 7.83.67 1.07 1.41 2.22 2.12 3.37a60 60 0 0 1 8 20c.35 1.73 1.05 2.06 2.62 2 3-.11 6 0 8.95-.06 1.66-.05 2.36.46 2.34 2.25-.09 5.82-.09 11.66 0 17.49 0 1.7-.52 2.37-2.26 2.32-3.26-.1-6.53-.09-9.78 0a2.15 2.15 0 0 0 -1.62 1.25 64.84 64.84 0 0 1 -10.39 24c2.6 2.62 5.11 5.28 7.78 7.78 1.31 1.23 1.43 2 .07 3.34-4.27 4.07-8.44 8.24-12.59 12.44-1.13 1.14-1.94 1.24-3.07 0-2.48-2.71-5.07-5.32-7.71-8.07a66.28 66.28 0 0 1 -25.93 10.58v11c0 1.65-.42 2.38-2.22 2.35q-9-.12-17.91 0c-1.83 0-2.25-.73-2.21-2.35.06-3.64 0-7.24 0-10.98zm11.34-99.71c-20.77 0-37.65 16.48-37.72 36.91a37.56 37.56 0 1 0 37.72-36.91z" fill="#24285b"/><path d="m254.66 243.2a41.47 41.47 0 0 1 -16.18-6.72c-1.58 1.66-3.2 3.28-4.72 5-.79.88-1.34.78-2.12 0q-3.87-3.94-7.86-7.78c-.76-.74-.65-1.22.05-1.91 1.65-1.6 3.22-3.27 4.74-4.82-1.36-2.64-2.87-5.23-4-8a47.57 47.57 0 0 1 -2.13-6.94c-.23-.88-.57-1.1-1.39-1.08-2 0-4 0-6 0-1 0-1.29-.36-1.28-1.31q0-5.59 0-11.19c0-1 .37-1.3 1.31-1.28 2 0 4.08.05 6.12 0 .38 0 1-.39 1.08-.69a41 41 0 0 1 6.57-15.19c-1.67-1.64-3.3-3.31-5-4.89-.77-.71-.75-1.18 0-1.89q4-3.89 7.95-7.88c.72-.73 1.23-.72 1.92 0 1.55 1.69 3.17 3.33 4.77 5 1.23-.75 2.24-1.39 3.29-2a38.09 38.09 0 0 1 11.76-4.4c.88-.17 1.22-.48 1.18-1.43-.09-2 0-3.9 0-5.86 0-.95.32-1.29 1.29-1.28q5.67.06 11.33 0c1.05 0 1.36.41 1.34 1.39v6.91a41 41 0 0 1 16.14 6.72c1.63-1.7 3.25-3.33 4.79-5 .75-.81 1.28-.76 2 0 2.58 2.63 5.19 5.24 7.85 7.79.81.78.73 1.26 0 2-1.63 1.55-3.18 3.19-4.87 4.9l1.33 2.1a37.53 37.53 0 0 1 5 12.5c.21 1.08.65 1.29 1.63 1.25 1.86-.07 3.73 0 5.6 0 1 0 1.48.29 1.46 1.4-.05 3.64-.05 7.29 0 10.93 0 1.07-.33 1.48-1.42 1.45q-3.06-.09-6.11 0a1.36 1.36 0 0 0 -1 .78 40.56 40.56 0 0 1 -6.5 15c1.63 1.64 3.2 3.31 4.86 4.87.82.77.9 1.27.05 2.08-2.67 2.55-5.28 5.16-7.87 7.78-.71.71-1.21.77-1.92 0-1.55-1.7-3.17-3.33-4.82-5.05a41.36 41.36 0 0 1 -16.17 6.69v6.85c0 1-.27 1.48-1.39 1.47-3.73-.06-7.47-.06-11.2 0-1.14 0-1.4-.46-1.38-1.48-.05-2.21-.08-4.46-.08-6.79zm7.06-62.33a23.24 23.24 0 1 0 23.38 23.28 23.35 23.35 0 0 0 -23.38-23.28z" fill="#68e1fd"/><path d="m217.64 262.83s-8.23-2.21-10-9.85c0 0 12.72-2.63 13.14 10.52z" fill="#68e1fd" opacity=".58"/><path d="m218.64 262s-5.78-9-.76-17.56c0 0 9.71 6.11 5.45 17.56z" fill="#68e1fd" opacity=".73"/><path d="m220.12 262s3-9.59 12.16-11.45c0 0 1.74 6.22-5.89 11.45z" fill="#68e1fd"/><path d="m214.16 261.82 1.71 11.39h10.5l1.5-11.39z" fill="#24285b"/><path d="m217.64 262.83s-8.23-2.21-10-9.85c0 0 12.72-2.63 13.14 10.52z" fill="#68e1fd" opacity=".58"/><path d="m218.64 262s-5.78-9-.76-17.56c0 0 9.71 6.11 5.45 17.56z" fill="#68e1fd" opacity=".73"/><path d="m220.12 262s3-9.59 12.16-11.45c0 0 1.74 6.22-5.89 11.45z" fill="#68e1fd"/><path d="m214.16 261.82 1.71 11.39h10.5l1.5-11.39z" fill="#24285b"/><g fill="none" stroke="#ffd200" stroke-miterlimit="10" stroke-width="5"><path d="m139.24 126.12h43.28"/><path d="m139.24 158.28h43.28"/><path d="m139.24 191.81h43.28"/><path d="m139.24 223.97h43.28"/><path d="m139.24 251.01h43.28"/><path d="m139.24 41.9v229.35"/><path d="m182.52 41.9v229.35"/></g><path d="m105.11 121.91 2.48 7.45-5.9 3.74-2.12-12.91z" fill="#f4a28c"/><path d="m97.55 113a4.64 4.64 0 0 1 7.67-1.29c2.51 2.68 5.54 6.94 2.11 9.26-5.23 3.55-10-3.08-10-3.08a8.4 8.4 0 0 1 .22-4.89z" fill="#f4a28c"/><path d="m101.38 117.56s-1.35-1.13-1.95.47 1.76 2.36 2.47 1.56-.52-2.03-.52-2.03z" fill="#f4a28c"/><path d="m100 122.56-4-4.13a4.39 4.39 0 0 1 -1.22-3.24 7.82 7.82 0 0 1 2.1-5.48 5.32 5.32 0 0 1 4.18-1.66 7.73 7.73 0 0 1 3.17 1.44 3.77 3.77 0 0 1 1 .78c.92 1.21-.79 1.65-1.55 2.3a4.57 4.57 0 0 0 -1.7 2.86c-.4 2.88 2.33 5.2-1.98 7.13z" fill="#24285b"/><path d="m107.59 129.36s29.61-12.17 37.59 10.69-4.28 56.57-4.28 56.57h-33.31s-29.5-44.42-5.9-63.51z" fill="#68e1fd"/><path d="m107.59 196.62 5.74 69.21h6.88l4.98-53.73 15.71-15.48z" fill="#24285b"/><path d="m114.86 265.83.29 2.35a3.26 3.26 0 0 0 3.24 2.87h5a1.78 1.78 0 0 0 1.14-3.15 10.36 10.36 0 0 0 -4.34-2.07z" fill="#68e1fd"/><path d="m123.85 141.21c-3.73-10.29 9.48-18.12 16.68-9.88a32.39 32.39 0 0 1 6.17 11.42c7.58 23 9.37 36.26 34.14 36.77v7.4s-33.2 5.07-48.77-26.82a195.51 195.51 0 0 1 -8.22-18.89z" fill="#68e1fd"/><path d="m123.85 141.21c-3.73-10.29 9.48-18.12 16.68-9.88a32.39 32.39 0 0 1 6.17 11.42c7.58 23 9.37 36.26 34.14 36.77v7.4s-33.2 5.07-48.77-26.82a195.51 195.51 0 0 1 -8.22-18.89z" fill="#fff" opacity=".46"/><path d="m180.84 181.3s6.27-1.41 7.64 2.67-7.64 2.95-7.64 2.95z" fill="#f4a28c"/><path d="m140.9 196.62s19.41-2.69 25.53 8-9.53 39.83-9.53 39.83l-7-2.22s12.14-27.55-5.16-31a14.62 14.62 0 0 0 -6 .16l-18.55 4.12 3-18.22z" fill="#24285b"/><path d="m152 242.9-.42 1.51a3.19 3.19 0 0 0 .76 3.05l.49.52a3.21 3.21 0 0 0 2.31 1h4.16a1.35 1.35 0 0 0 .94-2.31 11.7 11.7 0 0 0 -3.36-2.2z" fill="#68e1fd"/><path d="m139.24 61.81h43.28" fill="none" stroke="#ffd200" stroke-miterlimit="10" stroke-width="5"/><path d="m139.24 93.97h43.28" fill="none" stroke="#ffd200" stroke-miterlimit="10" stroke-width="5"/><path d="m94.75 117.94 12.46-6.9-2.06-.77s-2.66-5.48-6.55-4.72-8.4 5.11-3.85 12.39z" fill="#68e1fd"/><path d="m293.34 121.9h58.98v38h-58.98z" fill="#e6e6e6"/><path d="m293.34 107.51h58.98v14.39h-58.98z" fill="#ccc"/><rect fill="#ccc" height="7.66" rx="3.83" width="44.17" x="301" y="135.43"/><circle cx="312.66" cy="139.26" fill="#ffd200" r="6.64"/></svg>